<?xml version="1.0" encoding="UTF-8" standalone="no"?>
<svg width="512" height="512" viewBox="0 0 512 512" fill="none" xmlns="http://www.w3.org/2000/svg">
  <rect width="512" height="512" rx="100" fill="#3A86FF"/>
  <path d="M256 120C179.07 120 116 183.07 116 260C116 336.93 179.07 400 256 400C332.93 400 396 336.93 396 260C396 183.07 332.93 120 256 120ZM256 370C195.71 370 146 320.29 146 260C146 199.71 195.71 150 256 150C316.29 150 366 199.71 366 260C366 320.29 316.29 370 256 370Z" fill="white"/>
  <path d="M256 180C212.28 180 176 216.28 176 260C176 303.72 212.28 340 256 340C299.72 340 336 303.72 336 260C336 216.28 299.72 180 256 180ZM256 310C228.94 310 206 287.06 206 260C206 232.94 228.94 210 256 210C283.06 210 306 232.94 306 260C306 287.06 283.06 310 256 310Z" fill="#FF9E00"/>
  <path d="M256 230C245.51 230 237 238.51 237 249C237 259.49 245.51 268 256 268C266.49 268 275 259.49 275 249C275 238.51 266.49 230 256 230Z" fill="#FF006E"/>
</svg>
